<svg xmlns="http://www.w3.org/2000/svg" width="44.23" height="44.23" viewBox="0 0 44.23 44.23"><g id="ae5daa14-2b6e-412e-958e-2785f0cb4194" data-name="Layer 2"><g id="f3ac38cb-3d62-4145-a3a8-b0bf5eca03e1" data-name="Layer 1"><path d="M31.29,44.23H12.94A12.92,12.92,0,0,1,0,31.41V12.94A13,13,0,0,1,12.94,0H31.29A13,13,0,0,1,44.23,12.94V31.41A12.92,12.92,0,0,1,31.29,44.23ZM12.94,4.12a8.81,8.81,0,0,0-8.81,8.82V31.41a8.79,8.79,0,0,0,8.81,8.7H31.29a8.79,8.79,0,0,0,8.81-8.7V12.94a8.82,8.82,0,0,0-8.81-8.82Zm21,3.45a2.82,2.82,0,0,0-2.75,3,2.77,2.77,0,0,0,5.5,0A2.82,2.82,0,0,0,33.93,7.57Zm-11.81,26a11.44,11.44,0,1,1,0-22.87c6.29,0,12.22,5.13,12.22,11.43S28.41,33.55,22.12,33.55Zm0-18.74a7.31,7.31,0,1,0,7.3,7.3A7.31,7.31,0,0,0,22.12,14.81Z" fill-rule="evenodd"/></g></g></svg>