<svg xmlns="http://www.w3.org/2000/svg" xmlns:xlink="http://www.w3.org/1999/xlink" viewBox="0 0 42.54 37.9"><defs><style>.cls-1{fill:none;}.cls-2{clip-path:url(#clip-path);}.cls-3{fill:red;}</style><clipPath id="clip-path" transform="translate(0 0)"><rect class="cls-1" width="42.54" height="37.9"/></clipPath></defs><g id="Layer_2" data-name="Layer 2"><g id="Layer_1-2" data-name="Layer 1"><g class="cls-2"><path class="cls-3" d="M42.54,4.9a4.9,4.9,0,0,1-.4,1.88,5.12,5.12,0,0,1-1,1.68,5.17,5.17,0,0,1-1.64,1.07,5.06,5.06,0,0,1-1.92.31,4.94,4.94,0,0,1-1.88-.39,5,5,0,0,1-1.68-1,5,5,0,0,1-1-1.7,4.69,4.69,0,0,1-.41-1.87A5,5,0,0,1,33,3a5,5,0,0,1,1-1.65,4.91,4.91,0,0,1,1.67-1A4.87,4.87,0,0,1,37.6,0a4.78,4.78,0,0,1,1.9.32,4.88,4.88,0,0,1,1.61,1.07,4.94,4.94,0,0,1,1,1.64,4.86,4.86,0,0,1,.41,1.87" transform="translate(0 0)"/><path d="M26.31,37.47,19,27c-.1-.15-.08-.28.08-.31h0c3.86-.63,6.82-2.78,6.82-7.56,0-2.95-1-5-2.79-6.21a11,11,0,0,0-6.4-1.55H.52A.52.52,0,0,0,0,11.9V37.38a.52.52,0,0,0,.52.52H5.25a.52.52,0,0,0,.53-.52V27.21a.31.31,0,0,1,.31-.31h6a.65.65,0,0,1,.61.33c1.19,1.8,6.9,10.38,7,10.44a.6.6,0,0,0,.43.23h6a.27.27,0,0,0,.23-.43m-20.22-15a.31.31,0,0,1-.31-.31V16.07a.31.31,0,0,1,.31-.31H16a6,6,0,0,1,2.87.53,2.92,2.92,0,0,1,1.37,2.85c0,2-.86,3.37-3.91,3.37Z" transform="translate(0 0)"/></g></g></g></svg>