<svg xmlns="http://www.w3.org/2000/svg" width="34.06" height="44.26" viewBox="0 0 34.06 44.26"><g id="b5a6cf88-ccd1-4627-a3b2-9d2581bbbf39" data-name="Layer 2"><g id="a98c365b-bc82-486d-bec4-34de4dbeb8c1" data-name="Layer 1"><path d="M13.66,29.22c-1.17,6.12-2.6,12-6.83,15C5.53,35,8.75,28.32,10.25,20.71c-2.56-4.28.3-12.9,5.68-10.78,6.63,2.61-5.73,15.93,2.56,17.59,8.67,1.74,12.2-15,6.83-20C17.56-.76,2.73,6.91,4.56,18.16c.44,2.75,3.29,3.58,1.13,7.37-5-1.09-6.23-5-5.5-10.21C-.26,6.8,7.12.83,14.51,0c9.35,0,18.13,3.43,19.34,12.2,1.37,10.37-4.22,20.63-14.22,20.55C16.92,31.85,15.78,30.51,13.66,29.22Z" fill-rule="evenodd"/></g></g></svg>