<svg xmlns="http://www.w3.org/2000/svg" width="35.96" height="35.94" viewBox="0 0 35.96 35.94"><g id="e2523a6d-3528-49e5-b5e7-e5945c6adb8b" data-name="Layer 2"><g id="ebe919d9-8c59-4e07-bc9c-35d5311ec3f2" data-name="Layer 1"><path d="M36,23a.68.68,0,0,0,0-.14,1.94,1.94,0,0,0,0-.24,1.21,1.21,0,0,0-.05-.18l-.06-.19-.09-.18-.09-.16c0-.06-.08-.1-.12-.15s-.08-.11-.12-.15a.81.81,0,0,0-.14-.12l-.15-.13-.18-.1a.83.83,0,0,0-.16-.09l-.24-.08-.12,0h0l-8.95-2a2,2,0,0,0-1.85.53l-2.62,2.6A24.91,24.91,0,0,1,17,19a2,2,0,1,0-2.82,2.84,28.43,28.43,0,0,0,5.94,4.52h0l.11.07.08,0a1.33,1.33,0,0,0,.33.13l.13,0a1.52,1.52,0,0,0,.42.06h0a1.76,1.76,0,0,0,.46-.06l.13,0a2.15,2.15,0,0,0,.32-.13l.12-.06a2,2,0,0,0,.37-.28v0l3-2.92L32,24.6v7.34A29.4,29.4,0,0,1,4,4h7.34l1.43,6.38-2.91,3a2,2,0,0,0,0,2.83,2,2,0,0,0,2.83,0l3.66-3.79a2,2,0,0,0,.51-1.83l-2-9h0v0s0-.08,0-.12,0-.16-.08-.24-.06-.1-.08-.15L14.6.86,14.48.72a.93.93,0,0,0-.13-.15L14.21.46a.91.91,0,0,0-.16-.13,1.29,1.29,0,0,0-.16-.09L13.71.15l-.2-.06-.17,0-.27,0H3L2.78,0h-.2L2.3.12C.71.58-.18,2.17,0,4.23A33.31,33.31,0,0,0,31.84,35.94H32c1.76,0,3.63-.78,3.93-2.47A1.84,1.84,0,0,0,36,33Z" fill="#010101"/></g></g></svg>