<svg id="e5589d48-0ee2-48d6-9a91-661f661bdbe4" data-name="レイヤー 3" xmlns="http://www.w3.org/2000/svg" width="260" height="260"><path d="M260 129.32c0 31.27-13 57.11-27.74 83.93-13.19 17-31.75 29.63-51.85 38-15.5 6.43-32.68 8.38-50.48 8.38s-34.13-4-49.64-10.44c-16.06-6.62-32.29-13.72-44.35-25.86s-18.54-28.5-25.16-44.63C4.23 163.19 0 147.21 0 129.32s2.75-34.45 9.14-49.94C15.85 63.24 24.36 48 36.45 35.86s28-19.15 44-25.76A126.16 126.16 0 01129.93.37c17.8 0 34.49 1.89 50 8.29A131.7 131.7 0 01222.32 37c12.1 12.18 20.07 27 26.76 43.08 6.39 15.51 10.92 31.49 10.92 49.24" fill="red"/><path d="M136.15 150.3a2.81 2.81 0 01-2.57-1.7l-11.88-27.67a2.8 2.8 0 01.62-3.1l8-8a2.8 2.8 0 113.95 4l-6.64 6.64 8.16 19L150 94.09l-45.56 14.32 9.66 4.34a2.8 2.8 0 11-2.29 5.1l-16.37-7.34a2.82 2.82 0 01-1.65-2.72 2.79 2.79 0 012-2.5l57.68-18.15a2.8 2.8 0 013.53 3.51l-18.14 57.69a2.79 2.79 0 01-2.53 1.95zM77.54 195c-3.78 0-6.18-3.31-6.18-7.92s2-7.94 6.15-7.94a4.45 4.45 0 014.76 3.75h4.55c-.48-4.29-3.76-7.6-9.31-7.6-6.65 0-10.82 5.11-10.82 11.79s4.51 11.67 10.85 11.67a9.54 9.54 0 006.85-2.39 8 8 0 002.49-5.33H82.4a4.55 4.55 0 01-4.86 3.97zm21.55-13.34a8.55 8.55 0 108.45 8.55 8.23 8.23 0 00-8.45-8.53zm0 13.81c-2.65 0-4.1-2.11-4.1-5.26s1.45-5.3 4.1-5.3 4.1 2.14 4.1 5.3-1.48 5.28-4.1 5.28zm22-13.81a5.26 5.26 0 00-4.8 2.65h-.09v-2.21H112v16.2h4.29v-9.18c0-2.21 1.39-3.72 3.28-3.72a2.7 2.7 0 012.81 3v9.93h4.29v-10.59c.05-3.54-2.19-6.06-5.53-6.06zm16.24 11.86V185h2.78v-2.84h-2.78v-5.05h-4.19v5.05H131V185h2.24v9.49c0 3.06 2.3 3.88 4.38 3.88 1.71 0 2.68-.06 2.68-.06v-3.15h-1.26a1.42 1.42 0 01-1.66-1.62zm21.26-5.87c0-3.78-1.95-6-6.81-6s-6.84 2.49-7 5.33h3.82c.12-1.54 1.1-2.27 3.12-2.27 1.8 0 2.71.76 2.71 1.92s-1.23 1.46-3.91 1.83c-3.6.51-6.5 1.64-6.5 5.21 0 3.21 2.34 5 5.65 5 2.77 0 3.94-1 4.76-2.18h.06a4.46 4.46 0 00.51 1.8h4.13v-.16c-.38-.28-.57-1-.57-2.24zm-4 4.92c0 1.58-1.36 3.09-3.82 3.09-1.51 0-2.52-.53-2.52-2.05s1.1-2 3.34-2.52a11.63 11.63 0 003-1zm16.68 2.75c-2.61 0-3.84-2.05-3.84-5.11s1.32-5.11 3.91-5.11a3 3 0 013 2.49h4.2c-.57-3.5-3.16-5.93-7.35-5.93-4.92 0-8.08 3.72-8.08 8.55s3.19 8.54 8.3 8.54c4.32 0 7-2.74 7.28-6.18h-4.13a3 3 0 01-3.27 2.77zm18.87-.19a1.42 1.42 0 01-1.61-1.61V185h2.77v-2.84h-2.77v-5.05h-4.2v5.05h-2.24V185h2.24v9.49c0 3.06 2.31 3.88 4.39 3.88 1.7 0 2.68-.06 2.68-.06v-3.15s-.71-.01-1.24-.01z" fill="#fff"/></svg>