<svg xmlns="http://www.w3.org/2000/svg" viewBox="0 0 42.54 37.9"><defs><clipPath id="clip-path"><path fill="none" d="M0 0h42.54v37.9H0z"/></clipPath></defs><g id="Layer_2" data-name="Layer 2"><g clip-path="url(#clip-path)" id="Layer_1-2" data-name="Layer 1"><path d="M42.54 4.9a4.9 4.9 0 01-.4 1.88 5.12 5.12 0 01-1 1.68 5.17 5.17 0 01-1.64 1.07 5.06 5.06 0 01-1.92.31 4.94 4.94 0 01-1.88-.39 5 5 0 01-1.68-1 5 5 0 01-1-1.7 4.69 4.69 0 01-.41-1.87A5 5 0 0133 3a5 5 0 011-1.65 4.91 4.91 0 011.67-1A4.87 4.87 0 0137.6 0a4.78 4.78 0 011.9.32 4.88 4.88 0 011.61 1.07 4.94 4.94 0 011 1.64 4.86 4.86 0 01.41 1.87" fill="red"/><path d="M26.31 37.47L19 27c-.1-.15-.08-.28.08-.31 3.86-.63 6.82-2.78 6.82-7.56 0-2.95-1-5-2.79-6.21a11 11 0 00-6.4-1.55H.52a.52.52 0 00-.52.53v25.48a.52.52 0 00.52.52h4.73a.52.52 0 00.53-.52V27.21a.31.31 0 01.31-.31h6a.65.65 0 01.61.33c1.19 1.8 6.9 10.38 7 10.44a.6.6 0 00.43.23h6a.27.27 0 00.23-.43m-20.22-15a.31.31 0 01-.31-.31v-6.09a.31.31 0 01.31-.31H16a6 6 0 012.87.53 2.92 2.92 0 011.37 2.85c0 2-.86 3.37-3.91 3.37z"/></g></g></svg>