<svg id="e5589d48-0ee2-48d6-9a91-661f661bdbe4" data-name="レイヤー 3" xmlns="http://www.w3.org/2000/svg" width="260" height="260" viewBox="0 0 260 260"><path d="M260,129.32c0,31.27-13,57.11-27.74,83.93-13.19,17-31.75,29.63-51.85,38-15.5,6.43-32.68,8.38-50.48,8.38s-34.13-4-49.64-10.44C64.23,242.57,48,235.47,35.94,223.33S17.4,194.83,10.78,178.7C4.23,163.19,0,147.21,0,129.32S2.75,94.87,9.14,79.38C15.85,63.24,24.36,48,36.45,35.86s28-19.15,44-25.76A126.16,126.16,0,0,1,129.93.37c17.8,0,34.49,1.89,50,8.29A131.7,131.7,0,0,1,222.32,37c12.1,12.18,20.07,27,26.76,43.08C255.47,95.59,260,111.57,260,129.32" style="fill:red"/><path d="M136.15,150.3a2.81,2.81,0,0,1-2.57-1.7L121.7,120.93a2.8,2.8,0,0,1,.62-3.1l8-8a2.8,2.8,0,1,1,3.95,4l-6.64,6.64,8.16,19L150,94.09l-45.56,14.32,9.66,4.34a2.8,2.8,0,1,1-2.29,5.1l-16.37-7.34a2.82,2.82,0,0,1-1.65-2.72,2.79,2.79,0,0,1,2-2.5l57.68-18.15A2.8,2.8,0,0,1,157,90.65l-18.14,57.69a2.79,2.79,0,0,1-2.53,1.95Z" style="fill:#fff"/><path d="M77.54,195c-3.78,0-6.18-3.31-6.18-7.92s2-7.94,6.15-7.94a4.45,4.45,0,0,1,4.76,3.75h4.55c-.48-4.29-3.76-7.6-9.31-7.6-6.65,0-10.82,5.11-10.82,11.79s4.51,11.67,10.85,11.67a9.54,9.54,0,0,0,6.85-2.39,8,8,0,0,0,2.49-5.33H82.4A4.55,4.55,0,0,1,77.54,195Zm21.55-13.34a8.55,8.55,0,1,0,8.45,8.55A8.23,8.23,0,0,0,99.09,181.68Zm0,13.81c-2.65,0-4.1-2.11-4.1-5.26s1.45-5.3,4.1-5.3,4.1,2.14,4.1,5.3S101.71,195.49,99.09,195.49Zm22-13.81a5.26,5.26,0,0,0-4.8,2.65h-.09v-2.21h-4.2V198.3h4.29v-9.18c0-2.21,1.39-3.72,3.28-3.72a2.7,2.7,0,0,1,2.81,3v9.93h4.29V187.74C126.72,184.2,124.48,181.68,121.14,181.68Zm16.24,11.86V185h2.78v-2.84h-2.78v-5.05h-4.19v5.05H131V185h2.24v9.49c0,3.06,2.3,3.88,4.38,3.88,1.71,0,2.68-.06,2.68-.06v-3.15s-.72,0-1.26,0A1.42,1.42,0,0,1,137.38,193.54Zm21.26-5.87c0-3.78-1.95-6-6.81-6s-6.84,2.49-7,5.33h3.82c.12-1.54,1.1-2.27,3.12-2.27,1.8,0,2.71.76,2.71,1.92s-1.23,1.46-3.91,1.83c-3.6.51-6.5,1.64-6.5,5.21,0,3.21,2.34,5,5.65,5,2.77,0,3.94-1,4.76-2.18h.06a4.46,4.46,0,0,0,.51,1.8h4.13v-.16c-.38-.28-.57-1-.57-2.24Zm-4,4.92c0,1.58-1.36,3.09-3.82,3.09-1.51,0-2.52-.53-2.52-2.05s1.1-2,3.34-2.52a11.63,11.63,0,0,0,3-1Zm16.68,2.75c-2.61,0-3.84-2.05-3.84-5.11s1.32-5.11,3.91-5.11a3,3,0,0,1,3,2.49h4.2c-.57-3.5-3.16-5.93-7.35-5.93-4.92,0-8.08,3.72-8.08,8.55s3.19,8.54,8.3,8.54c4.32,0,7-2.74,7.28-6.18h-4.13A3,3,0,0,1,171.29,195.34Zm18.87-.19a1.42,1.42,0,0,1-1.61-1.61V185h2.77v-2.84h-2.77v-5.05h-4.2v5.05h-2.24V185h2.24v9.49c0,3.06,2.31,3.88,4.39,3.88,1.7,0,2.68-.06,2.68-.06v-3.15S190.69,195.15,190.16,195.15Z" style="fill:#fff"/></svg>