<svg xmlns="http://www.w3.org/2000/svg" width="9.87" height="9.84" viewBox="0 0 9.87 9.84"><g id="ad29315f-1763-4f18-aec8-8f70e7a784fc" data-name="Layer 2"><g id="b66e33d8-1331-4393-bdba-57971cf7e023" data-name="レイヤー 3"><path d="M9.87,4.9a6.53,6.53,0,0,1-1,3.18,4.83,4.83,0,0,1-2,1.45,5.06,5.06,0,0,1-1.92.31,4.94,4.94,0,0,1-1.88-.39,5,5,0,0,1-1.69-1,5.15,5.15,0,0,1-1-1.7A4.69,4.69,0,0,1,0,4.9,4.79,4.79,0,0,1,.35,3a4.94,4.94,0,0,1,1-1.65,5,5,0,0,1,1.68-1A4.66,4.66,0,0,1,4.93,0a5,5,0,0,1,1.9.31A5.06,5.06,0,0,1,8.44,1.39,4.94,4.94,0,0,1,9.46,3,4.86,4.86,0,0,1,9.87,4.9" fill="red"/></g></g></svg>